<?xml version="1.0" encoding="UTF-8"?>
<svg width="122px" height="112px" viewBox="0 0 122 112" version="1.1" xmlns="http://www.w3.org/2000/svg" xmlns:xlink="http://www.w3.org/1999/xlink">
    <title>metamask-fox</title>
    <g id="Page-1" stroke="none" stroke-width="1" fill="none" fill-rule="evenodd">
        <g id="metamask-fox" fill-rule="nonzero">
            <polygon id="Path" fill="#E17726" stroke="#E17726" stroke-width="0.25" points="115.21 1 68.77 36.36 76.86 16.6"></polygon>
            <polygon id="Path" fill="#E27625" stroke="#E27625" stroke-width="0.25" points="6.79 1 52.86 36.71 45.14 16.6"></polygon>
            <polygon id="Path" fill="#E27625" stroke="#E27625" stroke-width="0.25" points="98.57 81.07 86.07 99.71 112.5 106.93 120 81.5"></polygon>
            <polygon id="Path" fill="#E27625" stroke="#E27625" stroke-width="0.25" points="2.07 81.5 9.5 106.93 35.93 99.71 23.5 81.07"></polygon>
            <polygon id="Path" fill="#E27625" stroke="#E27625" stroke-width="0.25" points="34.64 49.79 27.79 60.71 53.93 61.86 53.07 33.93"></polygon>
            <polygon id="Path" fill="#E27625" stroke="#E27625" stroke-width="0.25" points="87.29 49.79 68.5 33.57 68.07 61.86 94.14 60.71"></polygon>
            <polygon id="Path" fill="#E27625" stroke="#E27625" stroke-width="0.25" points="35.93 99.71 52.14 92.14 38.07 81.71"></polygon>
            <polygon id="Path" fill="#E27625" stroke="#E27625" stroke-width="0.25" points="69.86 92.14 86.07 99.71 83.93 81.71"></polygon>
            <polygon id="Path" fill="#D5BFB2" stroke="#D5BFB2" stroke-width="0.25" points="86.07 99.71 69.86 92.14 71.14 102.29 71 106.57"></polygon>
            <polygon id="Path" fill="#D5BFB2" stroke="#D5BFB2" stroke-width="0.25" points="35.93 99.71 51 106.57 50.93 102.29 52.14 92.14"></polygon>
            <polygon id="Path" fill="#233447" stroke="#233447" stroke-width="0.25" points="51.36 75 37.86 71.29 47.29 67.14"></polygon>
            <polygon id="Path" fill="#233447" stroke="#233447" stroke-width="0.25" points="70.64 75 74.71 67.14 84.21 71.29"></polygon>
            <polygon id="Path" fill="#CC6228" stroke="#CC6228" stroke-width="0.25" points="35.93 99.71 38.21 81.07 23.5 81.5"></polygon>
            <polygon id="Path" fill="#CC6228" stroke="#CC6228" stroke-width="0.25" points="83.79 81.07 86.07 99.71 98.57 81.5"></polygon>
            <polygon id="Path" fill="#CC6228" stroke="#CC6228" stroke-width="0.25" points="94.14 60.71 68.07 61.86 70.64 75 74.71 67.14 84.21 71.29"></polygon>
            <polygon id="Path" fill="#CC6228" stroke="#CC6228" stroke-width="0.25" points="37.86 71.29 47.29 67.14 51.36 75 53.93 61.86 27.79 60.71"></polygon>
            <polygon id="Path" fill="#E27525" stroke="#E27525" stroke-width="0.25" points="27.79 60.71 38.07 81.71 37.86 71.29"></polygon>
            <polygon id="Path" fill="#E27525" stroke="#E27525" stroke-width="0.25" points="84.21 71.29 83.93 81.71 94.14 60.71"></polygon>
            <polygon id="Path" fill="#E27525" stroke="#E27525" stroke-width="0.25" points="53.93 61.86 51.36 75 54.64 90.36 55.14 69.86"></polygon>
            <polygon id="Path" fill="#E27525" stroke="#E27525" stroke-width="0.25" points="68.07 61.86 66.93 69.79 67.36 90.36 70.64 75"></polygon>
            <polygon id="Path" fill="#F5841F" stroke="#F5841F" stroke-width="0.25" points="70.64 75 67.36 90.36 69.86 92.14 83.93 81.71 84.21 71.29"></polygon>
            <polygon id="Path" fill="#F5841F" stroke="#F5841F" stroke-width="0.25" points="37.86 71.29 38.07 81.71 52.14 92.14 54.64 90.36 51.36 75"></polygon>
            <polygon id="Path" fill="#C0AC9D" stroke="#C0AC9D" stroke-width="0.25" points="71 106.57 71.14 102.29 70 101.29 52 101.29 50.93 102.29 51 106.57 35.93 99.71 40.93 103.71 51.79 111 70.14 111 81.07 103.71 86.07 99.71"></polygon>
            <polygon id="Path" fill="#161616" stroke="#161616" stroke-width="0.25" points="69.86 92.14 67.36 90.36 54.64 90.36 52.14 92.14 50.93 102.29 52 101.29 70 101.29 71.14 102.29"></polygon>
            <polygon id="Path" fill="#763E1A" stroke="#763E1A" stroke-width="0.25" points="117.5 38.43 121.5 20 115.21 1 69.86 35 87.29 49.79 111.86 56.64 117.14 50.5 114.86 48.86 118.57 45.57 115.71 43.43 119.43 40.64"></polygon>
            <polygon id="Path" fill="#763E1A" stroke="#763E1A" stroke-width="0.25" points="0.5 20 4.57 38.43 2.57 40.64 6.29 43.43 3.43 45.57 7.14 48.86 4.86 50.5 10.14 56.64 34.64 49.79 52.14 35 6.79 1"></polygon>
            <polygon id="Path" fill="#F5841F" stroke="#F5841F" stroke-width="0.25" points="111.86 56.64 87.29 49.79 94.14 60.71 83.93 81.71 98.57 81.5 120 81.5"></polygon>
            <polygon id="Path" fill="#F5841F" stroke="#F5841F" stroke-width="0.25" points="34.64 49.79 10.14 56.64 2.07 81.5 23.5 81.5 38.07 81.71 27.79 60.71"></polygon>
            <polygon id="Path" fill="#F5841F" stroke="#F5841F" stroke-width="0.25" points="68.07 61.86 69.86 35 76.86 16.6 45.14 16.6 52.14 35 53.93 61.86 54.57 69.93 54.64 90.36 67.36 90.36 67.43 69.93"></polygon>
        </g>
    </g>
</svg> 